<?xml version="1.0"?><svg viewBox="0 0 100 100" xmlns="http://www.w3.org/2000/svg" xmlns:xlink="http://www.w3.org/1999/xlink"><style>:root>svg{display:none}:root>svg:target{display:block}</style><svg viewBox="0 0 24 24" id="ds" xmlns="http://www.w3.org/2000/svg"><path d="M19.952 5.672c-1.904-1.531-4.916-1.79-5.044-1.801a.477.477 0 00-.474.281 3.715 3.715 0 00-.145.398c1.259.212 2.806.64 4.206 1.509a.48.48 0 01-.505.813C15.584 5.38 12.578 5.305 12 5.305s-3.585.075-5.989 1.567a.479.479 0 11-.505-.813c1.4-.868 2.946-1.297 4.206-1.509-.074-.236-.14-.386-.145-.398a.473.473 0 00-.475-.28c-.127.01-3.139.269-5.069 1.822C3.015 6.625 1 12.073 1 16.783a.48.48 0 00.063.237c1.391 2.443 5.185 3.083 6.05 3.111h.015a.478.478 0 00.387-.197l.875-1.202c-2.359-.61-3.564-1.645-3.634-1.706a.478.478 0 01.632-.718c.029.026 2.248 1.909 6.612 1.909 4.372 0 6.591-1.891 6.613-1.91a.479.479 0 01.632.718c-.07.062-1.275 1.096-3.634 1.706l.875 1.202c.09.124.234.197.387.197h.015c.865-.027 4.659-.667 6.05-3.111a.486.486 0 00.062-.236c0-4.71-2.015-10.158-3.048-11.111zM8.891 14.87c-.924 0-1.674-.857-1.674-1.913s.749-1.913 1.674-1.913 1.674.857 1.674 1.913-.749 1.913-1.674 1.913zm6.218 0c-.924 0-1.674-.857-1.674-1.913s.749-1.913 1.674-1.913c.924 0 1.674.857 1.674 1.913s-.75 1.913-1.674 1.913z"/></svg><svg viewBox="0 0 14 12" id="tw" xmlns="http://www.w3.org/2000/svg"><path fill-rule="evenodd" clip-rule="evenodd" d="M6.263 4.345S6.5.997 8.833.968c1.9-.025 2.265.838 2.265.838a4.285 4.285 0 001.557-.862 2.551 2.551 0 01-.637 1.508c.361-.003.71-.13.99-.36a1.942 1.942 0 01-1.038 1.245 9.716 9.716 0 01-1.6 5.917c-1.7 2.469-4.792 2.653-6.488 2.674A9.047 9.047 0 01.015 10.8s2.573.032 3.725-.81a18.236 18.236 0 01-2.55-2.107c.31.026.623-.006.923-.093a13.754 13.754 0 01-2.1-2.9c.318.063.644.08.968.05 0 0-1.5-2.435-.79-4.015 0 .004 2.535 3.206 6.072 3.419z"/></svg></svg>